<svg xmlns="http://www.w3.org/2000/svg" viewBox="0 0 128 128">
  <rect width="128" height="128" rx="20" fill="#0E3A5B"/>
  <path d="M30 76h44c0 14-10 24-22 24s-22-10-22-24z" fill="#fff"/>
  <rect x="22" y="70" width="60" height="8" rx="4" fill="#fff"/>
  <path d="M82 76c10 0 18 6 18 14s-8 14-18 14c6-4 10-9 10-14s-4-10-10-14z" fill="#fff" opacity=".9"/>
  <path d="M60 24c6 8-6 12 0 20s-6 12 0 20" fill="none" stroke="#fff" stroke-width="4" stroke-linecap="round"/>
  <path d="M76 28c6 8-6 12 0 20s-6 12 0 20" fill="none" stroke="#fff" stroke-width="4" stroke-linecap="round" opacity=".8"/>
</svg>